<svg width="26" height="32" viewBox="0 0 26 32" fill="none" xmlns="http://www.w3.org/2000/svg">
<path d="M3.25 32C2.35625 32 1.59115 31.6867 0.954687 31.06C0.318229 30.4333 0 29.68 0 28.8V9.6C0 8.72 0.318229 7.96667 0.954687 7.34C1.59115 6.71333 2.35625 6.4 3.25 6.4H6.5C6.5 4.64 7.13646 3.13333 8.40937 1.88C9.68229 0.626667 11.2125 0 13 0C14.7875 0 16.3177 0.626667 17.5906 1.88C18.8635 3.13333 19.5 4.64 19.5 6.4H22.75C23.6437 6.4 24.4089 6.71333 25.0453 7.34C25.6818 7.96667 26 8.72 26 9.6V28.8C26 29.68 25.6818 30.4333 25.0453 31.06C24.4089 31.6867 23.6437 32 22.75 32H3.25ZM3.25 28.8H22.75V9.6H19.5V12.8C19.5 13.2533 19.3443 13.6333 19.0328 13.94C18.7214 14.2467 18.3354 14.4 17.875 14.4C17.4146 14.4 17.0286 14.2467 16.7172 13.94C16.4057 13.6333 16.25 13.2533 16.25 12.8V9.6H9.75V12.8C9.75 13.2533 9.59427 13.6333 9.28281 13.94C8.97135 14.2467 8.58542 14.4 8.125 14.4C7.66458 14.4 7.27865 14.2467 6.96719 13.94C6.65573 13.6333 6.5 13.2533 6.5 12.8V9.6H3.25V28.8ZM9.75 6.4H16.25C16.25 5.52 15.9318 4.76667 15.2953 4.14C14.6589 3.51333 13.8937 3.2 13 3.2C12.1062 3.2 11.3411 3.51333 10.7047 4.14C10.0682 4.76667 9.75 5.52 9.75 6.4Z" fill="#309BE2"/>
</svg>
