<svg width="32" height="32" viewBox="0 0 32 32" fill="none" xmlns="http://www.w3.org/2000/svg">
<path d="M31.04 19.6L19.6 31.04C19.28 31.36 18.92 31.6 18.52 31.76C18.12 31.92 17.72 32 17.32 32C16.92 32 16.52 31.92 16.12 31.76C15.72 31.6 15.36 31.36 15.04 31.04L0.92 16.92C0.626667 16.6267 0.4 16.2867 0.24 15.9C0.08 15.5133 0 15.1067 0 14.68V3.2C0 2.32 0.313333 1.56667 0.94 0.94C1.56667 0.313333 2.32 0 3.2 0H14.68C15.1067 0 15.52 0.0866667 15.92 0.26C16.32 0.433333 16.6667 0.666667 16.96 0.96L31.04 15.08C31.36 15.4 31.5933 15.76 31.74 16.16C31.8867 16.56 31.96 16.96 31.96 17.36C31.96 17.76 31.8867 18.1533 31.74 18.54C31.5933 18.9267 31.36 19.28 31.04 19.6ZM17.32 28.8L28.76 17.36L14.64 3.2H3.2V14.64L17.32 28.8ZM7.2 9.6C7.86667 9.6 8.43333 9.36667 8.9 8.9C9.36667 8.43333 9.6 7.86667 9.6 7.2C9.6 6.53333 9.36667 5.96667 8.9 5.5C8.43333 5.03333 7.86667 4.8 7.2 4.8C6.53333 4.8 5.96667 5.03333 5.5 5.5C5.03333 5.96667 4.8 6.53333 4.8 7.2C4.8 7.86667 5.03333 8.43333 5.5 8.9C5.96667 9.36667 6.53333 9.6 7.2 9.6Z" fill="#309BE2"/>
</svg>
