<svg width="36" height="36" viewBox="0 0 36 36" fill="none" xmlns="http://www.w3.org/2000/svg">
<path d="M15.9 24C15.9 21.975 16.0812 20.5188 16.4437 19.6313C16.8062 18.7438 17.575 17.775 18.75 16.725C19.775 15.825 20.5562 15.0438 21.0937 14.3813C21.6312 13.7188 21.9 12.9625 21.9 12.1125C21.9 11.0875 21.5562 10.2375 20.8687 9.5625C20.1812 8.8875 19.225 8.55 18 8.55C16.725 8.55 15.7562 8.9375 15.0937 9.7125C14.4312 10.4875 13.9625 11.275 13.6875 12.075L9.82495 10.425C10.35 8.825 11.3125 7.4375 12.7125 6.2625C14.1125 5.0875 15.875 4.5 18 4.5C20.625 4.5 22.6437 5.23125 24.0562 6.69375C25.4687 8.15625 26.175 9.9125 26.175 11.9625C26.175 13.2125 25.9062 14.2813 25.3687 15.1688C24.8312 16.0563 23.9875 17.0625 22.8375 18.1875C21.6125 19.3625 20.8687 20.2563 20.6062 20.8688C20.3437 21.4813 20.2125 22.525 20.2125 24H15.9ZM18 33C17.175 33 16.4687 32.7063 15.8812 32.1188C15.2937 31.5313 15 30.825 15 30C15 29.175 15.2937 28.4688 15.8812 27.8813C16.4687 27.2938 17.175 27 18 27C18.825 27 19.5312 27.2938 20.1187 27.8813C20.7062 28.4688 21 29.175 21 30C21 30.825 20.7062 31.5313 20.1187 32.1188C19.5312 32.7063 18.825 33 18 33Z" fill="#72BCEE"/>
</svg>
