<svg width="36" height="36" viewBox="0 0 36 36" fill="none" xmlns="http://www.w3.org/2000/svg">
<path fill-rule="evenodd" clip-rule="evenodd" d="M18 1.43518C8.62115 1.43518 1.01587 9.03877 1.01587 18.4193C1.01587 25.9236 5.88234 32.2897 12.6306 34.5358C13.4792 34.6933 13.7908 34.1673 13.7908 33.7187C13.7908 33.3137 13.7751 31.9758 13.7677 30.5567C9.04274 31.5841 8.04571 28.5527 8.04571 28.5527C7.27312 26.5896 6.15993 26.0676 6.15993 26.0676C4.61868 25.0135 6.27609 25.0354 6.27609 25.0354C7.98131 25.155 8.87962 26.7857 8.87962 26.7857C10.3944 29.3816 12.8528 28.6312 13.822 28.1975C13.9745 27.0998 14.4146 26.3503 14.9003 25.9261C11.1279 25.4972 7.16202 24.0406 7.16202 17.5328C7.16202 15.6785 7.82577 14.1634 8.91224 12.9737C8.73562 12.5462 8.15427 10.8188 9.07649 8.47937C9.07649 8.47937 10.5024 8.0229 13.7481 10.2203C15.1031 9.84371 16.5563 9.65443 18 9.64796C19.4428 9.65443 20.8969 9.84315 22.2545 10.2197C25.4961 8.02234 26.9204 8.47881 26.9204 8.47881C27.8449 10.818 27.2635 12.5457 27.0872 12.9732C28.1762 14.1629 28.8351 15.678 28.8351 17.5322C28.8351 24.0556 24.8619 25.4916 21.08 25.9124C21.6894 26.4394 22.2322 27.4733 22.2322 29.0576C22.2322 31.3301 22.2126 33.1591 22.2126 33.7185C22.2126 34.1704 22.5186 34.7 23.3792 34.5332C30.1236 32.2849 34.9844 25.9208 34.9844 18.4193C34.9841 9.03934 27.3797 1.43518 18 1.43518Z" fill="#72BCEE"/>
<path d="M7.44857 25.8203C7.41116 25.9047 7.27841 25.93 7.15748 25.8724C7.03373 25.8172 6.96482 25.7022 7.00476 25.6176C7.04132 25.5304 7.17435 25.5065 7.29726 25.5647C7.42101 25.6201 7.49132 25.7362 7.44829 25.8206L7.44857 25.8203ZM8.13651 26.5879C8.05579 26.663 7.89744 26.6281 7.79001 26.5091C7.67863 26.391 7.65782 26.2327 7.74023 26.1564C7.82404 26.0816 7.9776 26.1171 8.08898 26.2352C8.19979 26.355 8.22173 26.5119 8.13679 26.5882L8.13651 26.5879ZM8.80644 27.5658C8.70238 27.6383 8.53194 27.5706 8.42676 27.4195C8.32269 27.2682 8.32269 27.0868 8.42957 27.0145C8.53448 26.942 8.70238 27.0075 8.80926 27.1571C8.91276 27.3104 8.91276 27.4921 8.80644 27.5658ZM9.7236 28.5111C9.63079 28.6137 9.43223 28.5862 9.2871 28.4464C9.13888 28.3094 9.09754 28.1145 9.19063 28.0121C9.28513 27.9092 9.48454 27.9379 9.63051 28.0768C9.77873 28.2135 9.82345 28.4087 9.72416 28.5108L9.7236 28.5111ZM10.9892 29.0598C10.9479 29.1928 10.7572 29.2533 10.5645 29.1965C10.3724 29.1382 10.2467 28.9827 10.2861 28.8483C10.3255 28.7141 10.5176 28.6514 10.7114 28.7119C10.9034 28.7698 11.0292 28.9245 10.9892 29.0598ZM12.3794 29.1613C12.3842 29.3014 12.2211 29.4172 12.0194 29.4201C11.8161 29.4248 11.6516 29.3112 11.6496 29.1734C11.6496 29.0319 11.8094 28.9175 12.0124 28.9135C12.2141 28.9099 12.3797 29.0224 12.3797 29.161L12.3794 29.1613ZM13.6726 28.9414C13.6968 29.0778 13.5565 29.2181 13.3559 29.2555C13.1591 29.2921 12.9763 29.2072 12.9509 29.0719C12.9268 28.9318 13.0696 28.7915 13.2665 28.7552C13.4673 28.7206 13.6473 28.8027 13.6726 28.9414Z" fill="#72BCEE"/>
</svg>
