<svg width="45" height="45" viewBox="0 0 45 45" fill="none" xmlns="http://www.w3.org/2000/svg">
<path d="M0 16C0 7.16344 7.16344 0 16 0H45V29C45 37.8366 37.8366 45 29 45H0V16Z" fill="#72BCEE"/>
<path d="M15.418 29.0156V32.2734C15.2969 32.4336 15.1074 32.6094 14.8496 32.8008C14.5957 32.9883 14.2578 33.1504 13.8359 33.2871C13.4141 33.4238 12.8887 33.4922 12.2598 33.4922C11.7246 33.4922 11.2344 33.4023 10.7891 33.2227C10.3438 33.0391 9.95898 32.7715 9.63477 32.4199C9.31445 32.0684 9.06641 31.6406 8.89062 31.1367C8.71484 30.6289 8.62695 30.0508 8.62695 29.4023V28.8105C8.62695 28.166 8.70703 27.5918 8.86719 27.0879C9.03125 26.5801 9.26562 26.1504 9.57031 25.7988C9.875 25.4473 10.2422 25.1816 10.6719 25.002C11.1055 24.8184 11.5957 24.7266 12.1426 24.7266C12.8418 24.7266 13.4199 24.8438 13.877 25.0781C14.3379 25.3086 14.6934 25.6289 14.9434 26.0391C15.1934 26.4492 15.3516 26.918 15.418 27.4453H13.9766C13.9297 27.1484 13.8379 26.8828 13.7012 26.6484C13.5684 26.4141 13.377 26.2305 13.127 26.0977C12.8809 25.9609 12.5605 25.8926 12.166 25.8926C11.8262 25.8926 11.5273 25.957 11.2695 26.0859C11.0117 26.2148 10.7969 26.4043 10.625 26.6543C10.457 26.9043 10.3301 27.209 10.2441 27.5684C10.1582 27.9277 10.1152 28.3379 10.1152 28.7988V29.4023C10.1152 29.8711 10.1641 30.2871 10.2617 30.6504C10.3633 31.0137 10.5078 31.3203 10.6953 31.5703C10.8867 31.8203 11.1191 32.0098 11.3926 32.1387C11.666 32.2637 11.9746 32.3262 12.3184 32.3262C12.6543 32.3262 12.9297 32.2988 13.1445 32.2441C13.3594 32.1855 13.5293 32.1172 13.6543 32.0391C13.7832 31.957 13.8828 31.8789 13.9531 31.8047V30.1113H12.1777V29.0156H15.418ZM19.7012 33.4922C19.2324 33.4922 18.8086 33.416 18.4297 33.2637C18.0547 33.1074 17.7344 32.8906 17.4688 32.6133C17.207 32.3359 17.0059 32.0098 16.8652 31.6348C16.7246 31.2598 16.6543 30.8555 16.6543 30.4219V30.1875C16.6543 29.6914 16.7266 29.2422 16.8711 28.8398C17.0156 28.4375 17.2168 28.0938 17.4746 27.8086C17.7324 27.5195 18.0371 27.2988 18.3887 27.1465C18.7402 26.9941 19.1211 26.918 19.5312 26.918C19.9844 26.918 20.3809 26.9941 20.7207 27.1465C21.0605 27.2988 21.3418 27.5137 21.5645 27.791C21.791 28.0645 21.959 28.3906 22.0684 28.7695C22.1816 29.1484 22.2383 29.5664 22.2383 30.0234V30.627H17.3398V29.6133H20.8438V29.502C20.8359 29.248 20.7852 29.0098 20.6914 28.7871C20.6016 28.5645 20.4629 28.3848 20.2754 28.248C20.0879 28.1113 19.8379 28.043 19.5254 28.043C19.291 28.043 19.082 28.0938 18.8984 28.1953C18.7188 28.293 18.5684 28.4355 18.4473 28.623C18.3262 28.8105 18.2324 29.0371 18.166 29.3027C18.1035 29.5645 18.0723 29.8594 18.0723 30.1875V30.4219C18.0723 30.6992 18.1094 30.957 18.1836 31.1953C18.2617 31.4297 18.375 31.6348 18.5234 31.8105C18.6719 31.9863 18.8516 32.125 19.0625 32.2266C19.2734 32.3242 19.5137 32.373 19.7832 32.373C20.123 32.373 20.4258 32.3047 20.6914 32.168C20.957 32.0312 21.1875 31.8379 21.3828 31.5879L22.127 32.3086C21.9902 32.5078 21.8125 32.6992 21.5938 32.8828C21.375 33.0625 21.1074 33.209 20.791 33.3223C20.4785 33.4355 20.1152 33.4922 19.7012 33.4922ZM26.9141 32.1035V29.0801C26.9141 28.8535 26.873 28.6582 26.791 28.4941C26.709 28.3301 26.584 28.2031 26.416 28.1133C26.252 28.0234 26.0449 27.9785 25.7949 27.9785C25.5645 27.9785 25.3652 28.0176 25.1973 28.0957C25.0293 28.1738 24.8984 28.2793 24.8047 28.4121C24.7109 28.5449 24.6641 28.6953 24.6641 28.8633H23.2578C23.2578 28.6133 23.3184 28.3711 23.4395 28.1367C23.5605 27.9023 23.7363 27.6934 23.9668 27.5098C24.1973 27.3262 24.4727 27.1816 24.793 27.0762C25.1133 26.9707 25.4727 26.918 25.8711 26.918C26.3477 26.918 26.7695 26.998 27.1367 27.1582C27.5078 27.3184 27.7988 27.5605 28.0098 27.8848C28.2246 28.2051 28.332 28.6074 28.332 29.0918V31.9102C28.332 32.1992 28.3516 32.459 28.3906 32.6895C28.4336 32.916 28.4941 33.1133 28.5723 33.2812V33.375H27.125C27.0586 33.2227 27.0059 33.0293 26.9668 32.7949C26.9316 32.5566 26.9141 32.3262 26.9141 32.1035ZM27.1191 29.5195L27.1309 30.3926H26.1172C25.8555 30.3926 25.625 30.418 25.4258 30.4688C25.2266 30.5156 25.0605 30.5859 24.9277 30.6797C24.7949 30.7734 24.6953 30.8867 24.6289 31.0195C24.5625 31.1523 24.5293 31.3027 24.5293 31.4707C24.5293 31.6387 24.5684 31.793 24.6465 31.9336C24.7246 32.0703 24.8379 32.1777 24.9863 32.2559C25.1387 32.334 25.3223 32.373 25.5371 32.373C25.8262 32.373 26.0781 32.3145 26.293 32.1973C26.5117 32.0762 26.6836 31.9297 26.8086 31.7578C26.9336 31.582 27 31.416 27.0078 31.2598L27.4648 31.8867C27.418 32.0469 27.3379 32.2188 27.2246 32.4023C27.1113 32.5859 26.9629 32.7617 26.7793 32.9297C26.5996 33.0938 26.3828 33.2285 26.1289 33.334C25.8789 33.4395 25.5898 33.4922 25.2617 33.4922C24.8477 33.4922 24.4785 33.4102 24.1543 33.2461C23.8301 33.0781 23.5762 32.8535 23.3926 32.5723C23.209 32.2871 23.1172 31.9648 23.1172 31.6055C23.1172 31.2695 23.1797 30.9727 23.3047 30.7148C23.4336 30.4531 23.6211 30.2344 23.8672 30.0586C24.1172 29.8828 24.4219 29.75 24.7812 29.6602C25.1406 29.5664 25.5508 29.5195 26.0117 29.5195H27.1191ZM31.2266 28.2422V33.375H29.8145V27.0352H31.1621L31.2266 28.2422ZM33.166 26.9941L33.1543 28.3066C33.0684 28.291 32.9746 28.2793 32.873 28.2715C32.7754 28.2637 32.6777 28.2598 32.5801 28.2598C32.3379 28.2598 32.125 28.2949 31.9414 28.3652C31.7578 28.4316 31.6035 28.5293 31.4785 28.6582C31.3574 28.7832 31.2637 28.9355 31.1973 29.1152C31.1309 29.2949 31.0918 29.4961 31.0801 29.7188L30.7578 29.7422C30.7578 29.3438 30.7969 28.9746 30.875 28.6348C30.9531 28.2949 31.0703 27.9961 31.2266 27.7383C31.3867 27.4805 31.5859 27.2793 31.8242 27.1348C32.0664 26.9902 32.3457 26.918 32.6621 26.918C32.748 26.918 32.8398 26.9258 32.9375 26.9414C33.0391 26.957 33.1152 26.9746 33.166 26.9941Z" fill="white"/>
<path d="M14.2109 19.834V21H9.92773V19.834H14.2109ZM10.3379 12.4688V21H8.86719V12.4688H10.3379Z" fill="white"/>
<path d="M34.0378 12V21H32.6199V12H34.0378ZM37.9753 14.6602L35.2156 17.7188L33.7039 19.2656L33.3347 18.0703L34.4773 16.6582L36.2703 14.6602H37.9753ZM36.575 21L34.5183 18.0234L35.4089 17.0332L38.2097 21H36.575Z" fill="white"/>
<line x1="22.425" y1="17.5931" x2="24.425" y2="17.5931" stroke="white"/>
<path d="M22.275 17.1575C22.275 18.8983 20.856 20.3138 19.1 20.3138C17.3441 20.3138 15.925 18.8983 15.925 17.1575C15.925 15.4168 17.3441 14.0013 19.1 14.0013C20.856 14.0013 22.275 15.4168 22.275 17.1575Z" stroke="white"/>
<path d="M30.85 17.1575C30.85 18.8983 29.4309 20.3138 27.675 20.3138C25.9191 20.3138 24.5 18.8983 24.5 17.1575C24.5 15.4168 25.9191 14.0013 27.675 14.0013C29.4309 14.0013 30.85 15.4168 30.85 17.1575Z" stroke="white"/>
<line x1="21.925" y1="18.0931" x2="21.925" y2="23.1556" stroke="white"/>
<line x1="21.425" y1="22.6556" x2="24.4875" y2="22.6556" stroke="white"/>
</svg>
