<svg width="36" height="36" viewBox="0 0 36 36" fill="none" xmlns="http://www.w3.org/2000/svg">
<path d="M12.4574 35.9999H4.1474C1.86023 35.9999 0 34.1389 0 31.8508V23.5525C0 21.2643 1.86023 19.4033 4.1474 19.4033H12.4574C14.7446 19.4033 16.6048 21.2643 16.6048 23.5525V31.866C16.6048 34.1389 14.7446 35.9999 12.4574 35.9999ZM4.1474 22.1491C3.38501 22.1491 2.75985 22.7745 2.75985 23.5372V31.8508C2.75985 32.6135 3.38501 33.2389 4.1474 33.2389H12.4574C13.2198 33.2389 13.845 32.6135 13.845 31.8508V23.5372C13.845 22.7745 13.2198 22.1491 12.4574 22.1491H4.1474Z" fill="#72BCEE"/>
<path d="M27.6747 34.6119C26.9123 34.6119 26.2871 34.0017 26.2871 33.2237V30.4475C26.2871 29.6848 26.897 29.0593 27.6747 29.0593C28.437 29.0593 29.0622 29.6695 29.0622 30.4475V33.2237C29.0622 34.0017 28.4523 34.6119 27.6747 34.6119Z" fill="#72BCEE"/>
<path d="M33.2096 34.6117C32.4472 34.6117 31.822 34.0015 31.822 33.2236V29.0744C31.822 28.3117 32.4319 27.6863 33.2096 27.6863C33.972 27.6863 34.5971 28.2964 34.5971 29.0744V33.2236C34.5971 34.0015 33.9872 34.6117 33.2096 34.6117Z" fill="#72BCEE"/>
<path d="M33.2096 24.9253C32.4472 24.9253 31.822 24.3152 31.822 23.5372V20.7609C31.822 19.9982 32.4319 19.3728 33.2096 19.3728C33.972 19.3728 34.5971 19.983 34.5971 20.7609V23.5372C34.5971 24.2999 33.9872 24.9253 33.2096 24.9253Z" fill="#72BCEE"/>
<path d="M27.6747 27.6864C26.9123 27.6864 26.2871 27.0762 26.2871 26.2982V20.7609C26.2871 19.9982 26.897 19.3728 27.6747 19.3728C28.437 19.3728 29.0622 19.983 29.0622 20.7609V26.2982C29.0622 27.0762 28.4523 27.6864 27.6747 27.6864Z" fill="#72BCEE"/>
<path d="M22.1397 34.6119C21.3774 34.6119 20.7522 34.0017 20.7522 33.2238V27.6865C20.7522 26.9238 21.3621 26.2983 22.1397 26.2983C22.9021 26.2983 23.5273 26.9085 23.5273 27.6865V33.2238C23.5273 34.0017 22.9021 34.6119 22.1397 34.6119Z" fill="#72BCEE"/>
<path d="M22.1397 23.5372C21.3774 23.5372 20.7522 22.927 20.7522 22.1491V20.7609C20.7522 19.9982 21.3621 19.3728 22.1397 19.3728C22.9021 19.3728 23.5273 19.983 23.5273 20.7609V22.1491C23.5273 22.9118 22.9021 23.5372 22.1397 23.5372Z" fill="#72BCEE"/>
<path d="M9.68255 30.4627H6.9227C6.16032 30.4627 5.53516 29.8525 5.53516 29.0746V26.2983C5.53516 25.5356 6.16032 24.9102 6.9227 24.9102H9.6978C10.4602 24.9102 11.0853 25.5203 11.0853 26.2983V29.0746C11.0701 29.8373 10.4602 30.4627 9.68255 30.4627Z" fill="#72BCEE"/>
<path d="M12.4574 16.6119H4.1474C1.86023 16.6119 0 14.7508 0 12.4627V4.14915C0 1.86102 1.86023 0 4.1474 0H12.4574C14.7446 0 16.6048 1.86102 16.6048 4.14915V12.4627C16.6048 14.7508 14.7446 16.6119 12.4574 16.6119ZM4.1474 2.77627C3.38501 2.77627 2.75985 3.4017 2.75985 4.16441V12.478C2.75985 13.2407 3.38501 13.8661 4.1474 13.8661H12.4574C13.2198 13.8661 13.845 13.2407 13.845 12.478V4.14915C13.845 3.38644 13.2198 2.76102 12.4574 2.76102H4.1474V2.77627Z" fill="#72BCEE"/>
<path d="M9.68255 11.0746H6.9227C6.16032 11.0746 5.53516 10.4492 5.53516 9.68651V6.92549C5.53516 6.16278 6.16032 5.53735 6.9227 5.53735H9.6978C10.4602 5.53735 11.0853 6.16278 11.0853 6.92549V9.70176C11.0701 10.4645 10.4602 11.0746 9.68255 11.0746Z" fill="#72BCEE"/>
<path d="M31.8372 16.6119H23.5424C21.2552 16.6119 19.395 14.7508 19.395 12.4627V4.14915C19.395 1.86102 21.2552 0 23.5424 0H31.8525C34.1396 0 35.9998 1.86102 35.9998 4.14915V12.4627C35.9846 14.7508 34.1244 16.6119 31.8372 16.6119ZM23.5272 2.77627C22.7648 2.77627 22.1396 3.4017 22.1396 4.16441V12.478C22.1396 13.2407 22.7648 13.8661 23.5272 13.8661H31.8372C32.5996 13.8661 33.2248 13.2407 33.2248 12.478V4.14915C33.2248 3.38644 32.5996 2.76102 31.8372 2.76102H23.5272V2.77627Z" fill="#72BCEE"/>
<path d="M29.0623 11.0746H26.2872C25.5248 11.0746 24.8997 10.4492 24.8997 9.68651V6.92549C24.8997 6.16278 25.5096 5.53735 26.2872 5.53735H29.0623C29.8247 5.53735 30.4498 6.16278 30.4498 6.92549V9.70176C30.4498 10.4645 29.8247 11.0746 29.0623 11.0746Z" fill="#72BCEE"/>
</svg>
