<svg width="80" height="80" viewBox="0 0 80 80" fill="none" xmlns="http://www.w3.org/2000/svg">
<path d="M0 24C0 10.7452 10.7452 0 24 0H80V56C80 69.2548 69.2548 80 56 80H24C10.7452 80 0 69.2548 0 56V24Z" fill="url(#paint0_linear_19_668)"/>
<path d="M28.5898 50.5039V56.75C28.3789 57.0625 28.043 57.4141 27.582 57.8047C27.1211 58.1875 26.4844 58.5234 25.6719 58.8125C24.8672 59.0938 23.8281 59.2344 22.5547 59.2344C21.5156 59.2344 20.5586 59.0547 19.6836 58.6953C18.8164 58.3281 18.0625 57.7969 17.4219 57.1016C16.7891 56.3984 16.2969 55.5469 15.9453 54.5469C15.6016 53.5391 15.4297 52.3984 15.4297 51.125V49.8008C15.4297 48.5273 15.5781 47.3906 15.875 46.3906C16.1797 45.3906 16.625 44.543 17.2109 43.8477C17.7969 43.1445 18.5156 42.6133 19.3672 42.2539C20.2188 41.8867 21.1953 41.7031 22.2969 41.7031C23.6016 41.7031 24.6914 41.9297 25.5664 42.3828C26.4492 42.8281 27.1367 43.4453 27.6289 44.2344C28.1289 45.0234 28.4492 45.9219 28.5898 46.9297H26.3281C26.2266 46.3125 26.0234 45.75 25.7188 45.2422C25.4219 44.7344 24.9961 44.3281 24.4414 44.0234C23.8867 43.7109 23.1719 43.5547 22.2969 43.5547C21.5078 43.5547 20.8242 43.6992 20.2461 43.9883C19.668 44.2773 19.1914 44.6914 18.8164 45.2305C18.4414 45.7695 18.1602 46.4219 17.9727 47.1875C17.793 47.9531 17.7031 48.8164 17.7031 49.7773V51.125C17.7031 52.1094 17.8164 52.9883 18.043 53.7617C18.2773 54.5352 18.6094 55.1953 19.0391 55.7422C19.4688 56.2812 19.9805 56.6914 20.5742 56.9727C21.1758 57.2539 21.8398 57.3945 22.5664 57.3945C23.3711 57.3945 24.0234 57.3281 24.5234 57.1953C25.0234 57.0547 25.4141 56.8906 25.6953 56.7031C25.9766 56.5078 26.1914 56.3242 26.3398 56.1523V52.332H22.3906V50.5039H28.5898ZM37.2734 59.2344C36.3906 59.2344 35.5898 59.0859 34.8711 58.7891C34.1602 58.4844 33.5469 58.0586 33.0312 57.5117C32.5234 56.9648 32.1328 56.3164 31.8594 55.5664C31.5859 54.8164 31.4492 53.9961 31.4492 53.1055V52.6133C31.4492 51.582 31.6016 50.6641 31.9062 49.8594C32.2109 49.0469 32.625 48.3594 33.1484 47.7969C33.6719 47.2344 34.2656 46.8086 34.9297 46.5195C35.5938 46.2305 36.2812 46.0859 36.9922 46.0859C37.8984 46.0859 38.6797 46.2422 39.3359 46.5547C40 46.8672 40.543 47.3047 40.9648 47.8672C41.3867 48.4219 41.6992 49.0781 41.9023 49.8359C42.1055 50.5859 42.207 51.4062 42.207 52.2969V53.2695H32.7383V51.5H40.0391V51.3359C40.0078 50.7734 39.8906 50.2266 39.6875 49.6953C39.4922 49.1641 39.1797 48.7266 38.75 48.3828C38.3203 48.0391 37.7344 47.8672 36.9922 47.8672C36.5 47.8672 36.0469 47.9727 35.6328 48.1836C35.2188 48.3867 34.8633 48.6914 34.5664 49.0977C34.2695 49.5039 34.0391 50 33.875 50.5859C33.7109 51.1719 33.6289 51.8477 33.6289 52.6133V53.1055C33.6289 53.707 33.7109 54.2734 33.875 54.8047C34.0469 55.3281 34.293 55.7891 34.6133 56.1875C34.9414 56.5859 35.3359 56.8984 35.7969 57.125C36.2656 57.3516 36.7969 57.4648 37.3906 57.4648C38.1562 57.4648 38.8047 57.3086 39.3359 56.9961C39.8672 56.6836 40.332 56.2656 40.7305 55.7422L42.043 56.7852C41.7695 57.1992 41.4219 57.5938 41 57.9688C40.5781 58.3438 40.0586 58.6484 39.4414 58.8828C38.832 59.1172 38.1094 59.2344 37.2734 59.2344ZM52.2148 56.832V50.3047C52.2148 49.8047 52.1133 49.3711 51.9102 49.0039C51.7148 48.6289 51.418 48.3398 51.0195 48.1367C50.6211 47.9336 50.1289 47.832 49.543 47.832C48.9961 47.832 48.5156 47.9258 48.1016 48.1133C47.6953 48.3008 47.375 48.5469 47.1406 48.8516C46.9141 49.1562 46.8008 49.4844 46.8008 49.8359H44.6328C44.6328 49.3828 44.75 48.9336 44.9844 48.4883C45.2188 48.043 45.5547 47.6406 45.9922 47.2812C46.4375 46.9141 46.9688 46.625 47.5859 46.4141C48.2109 46.1953 48.9062 46.0859 49.6719 46.0859C50.5938 46.0859 51.4062 46.2422 52.1094 46.5547C52.8203 46.8672 53.375 47.3398 53.7734 47.9727C54.1797 48.5977 54.3828 49.3828 54.3828 50.3281V56.2344C54.3828 56.6562 54.418 57.1055 54.4883 57.582C54.5664 58.0586 54.6797 58.4688 54.8281 58.8125V59H52.5664C52.457 58.75 52.3711 58.418 52.3086 58.0039C52.2461 57.582 52.2148 57.1914 52.2148 56.832ZM52.5898 51.3125L52.6133 52.8359H50.4219C49.8047 52.8359 49.2539 52.8867 48.7695 52.9883C48.2852 53.082 47.8789 53.2266 47.5508 53.4219C47.2227 53.6172 46.9727 53.8633 46.8008 54.1602C46.6289 54.4492 46.543 54.7891 46.543 55.1797C46.543 55.5781 46.6328 55.9414 46.8125 56.2695C46.9922 56.5977 47.2617 56.8594 47.6211 57.0547C47.9883 57.2422 48.4375 57.3359 48.9688 57.3359C49.6328 57.3359 50.2188 57.1953 50.7266 56.9141C51.2344 56.6328 51.6367 56.2891 51.9336 55.8828C52.2383 55.4766 52.4023 55.082 52.4258 54.6992L53.3516 55.7422C53.2969 56.0703 53.1484 56.4336 52.9062 56.832C52.6641 57.2305 52.3398 57.6133 51.9336 57.9805C51.5352 58.3398 51.0586 58.6406 50.5039 58.8828C49.957 59.1172 49.3398 59.2344 48.6523 59.2344C47.793 59.2344 47.0391 59.0664 46.3906 58.7305C45.75 58.3945 45.25 57.9453 44.8906 57.3828C44.5391 56.8125 44.3633 56.1758 44.3633 55.4727C44.3633 54.793 44.4961 54.1953 44.7617 53.6797C45.0273 53.1562 45.4102 52.7227 45.9102 52.3789C46.4102 52.0273 47.0117 51.7617 47.7148 51.582C48.418 51.4023 49.2031 51.3125 50.0703 51.3125H52.5898ZM59.9609 48.3125V59H57.793V46.3203H59.9023L59.9609 48.3125ZM63.9219 46.25L63.9102 48.2656C63.7305 48.2266 63.5586 48.2031 63.3945 48.1953C63.2383 48.1797 63.0586 48.1719 62.8555 48.1719C62.3555 48.1719 61.9141 48.25 61.5312 48.4062C61.1484 48.5625 60.8242 48.7812 60.5586 49.0625C60.293 49.3438 60.082 49.6797 59.9258 50.0703C59.7773 50.4531 59.6797 50.875 59.6328 51.3359L59.0234 51.6875C59.0234 50.9219 59.0977 50.2031 59.2461 49.5312C59.4023 48.8594 59.6406 48.2656 59.9609 47.75C60.2812 47.2266 60.6875 46.8203 61.1797 46.5312C61.6797 46.2344 62.2734 46.0859 62.9609 46.0859C63.1172 46.0859 63.2969 46.1055 63.5 46.1445C63.7031 46.1758 63.8438 46.2109 63.9219 46.25Z" fill="#1F1F1F"/>
<path d="M26.3281 35.1602V37H17.7969V35.1602H26.3281ZM18.2422 19.9375V37H15.9805V19.9375H18.2422Z" fill="#1F1F1F"/>
<path d="M56.832 19V37H54.6523V19H56.832ZM64.5781 24.3203L59.0469 30.2383L55.9531 33.4492L55.7773 31.1406L57.9922 28.4922L61.9297 24.3203H64.5781ZM62.5977 37L58.0742 30.9531L59.1992 29.0195L65.1523 37H62.5977Z" fill="#1F1F1F"/>
<line x1="37" y1="31" x2="43" y2="31" stroke="#1F1F1F" stroke-width="2"/>
<path d="M38 31.5C38 34.6144 35.6876 37 33 37C30.3124 37 28 34.6144 28 31.5C28 28.3856 30.3124 26 33 26C35.6876 26 38 28.3856 38 31.5Z" stroke="#1F1F1F" stroke-width="2"/>
<path d="M52 31.5C52 34.6144 49.6876 37 47 37C44.3124 37 42 34.6144 42 31.5C42 28.3856 44.3124 26 47 26C49.6876 26 52 28.3856 52 31.5Z" stroke="#1F1F1F" stroke-width="2"/>
<line x1="38" y1="32" x2="38" y2="41" stroke="#1F1F1F" stroke-width="2"/>
<line x1="37" y1="40" x2="42" y2="40" stroke="#1F1F1F" stroke-width="2"/>
<defs>
<linearGradient id="paint0_linear_19_668" x1="80" y1="3.8296e-06" x2="-48.5" y2="122.5" gradientUnits="userSpaceOnUse">
<stop stop-color="white"/>
<stop offset="1" stop-color="#0E8DEA"/>
</linearGradient>
</defs>
</svg>
